<svg id="Layer_1" data-name="Layer 1" xmlns="http://www.w3.org/2000/svg" xmlns:xlink="http://www.w3.org/1999/xlink" viewBox="0 0 460.08 156"><defs><style>.cls-1{fill:none;}.cls-2{clip-path:url(#clip-path);}.cls-3{fill:#f2f7f2;}</style><clipPath id="clip-path"><rect class="cls-1" width="460.08" height="156"/></clipPath></defs><title>Artboard 1</title><g class="cls-2"><path class="cls-3" d="M.52,33.55a16.83,16.83,0,0,1,2-.26q2.93,0,9.66.35,3.53.09,4.83.09,1.89,0,8-.34l14.66-.86Q45.45,32,53.12,32q13.54,0,21.56,3.83a26.94,26.94,0,0,1,12.37,12,34.42,34.42,0,0,1,4.35,16.28,32.44,32.44,0,0,1-9.48,23.34q-9.49,9.82-25.53,9.82a26.5,26.5,0,0,1-7.5-.91A26.74,26.74,0,0,1,42,92.88a4.53,4.53,0,0,1-2-2.33A2,2,0,0,1,41,89.7a6.72,6.72,0,0,1,2.5.52,22.56,22.56,0,0,0,7.42,1,26.28,26.28,0,0,0,12.89-3.36A21.87,21.87,0,0,0,73,78.33a28.84,28.84,0,0,0,3.1-13.09,28.08,28.08,0,0,0-3.27-13,27.79,27.79,0,0,0-8.61-10.12q-3-2.15-9.25-3.62A45.8,45.8,0,0,0,45.25,37Q34.58,37,32.6,38.55l-.09,1.21.26,9.74-.09,1.72q-.17,2.33-.17,7.15,0,17.58.52,21.88v4.83l1.12,39.38q0,.87-.21,3.19t-.21,4.05a21.79,21.79,0,0,0,.69,6.29q2.07.6,12.07,2.84,4.66,1.12,5.09,1.29a2.49,2.49,0,0,1,1.21,1.12,3,3,0,0,1-.9,1.68,4.26,4.26,0,0,1-2.2.39c-.69,0-2.3-.15-4.83-.43q-7.42-.78-11.64-.78l-15.18.6L9,144.46c-.57,0-2.24.05-5,.17l-.08-2.24,11.21-2.15q2.76-.78,3.36-1.55.86-1.21.86-4.74c0-.52,0-1.63.08-3.36q.09-1.81.09-5,0-10.17-.86-43.34-.34-15.51-.34-31.54V49.24q0-6.2-1.9-7.84-3.19-2.84-16-4.65A4,4,0,0,1,0,35.19a3.58,3.58,0,0,1,.52-1.64"/><path class="cls-3" d="M101,140.92q12.53-1.46,14.16-2.07a4.52,4.52,0,0,0,2.06-2.58v-.95q0-2.15.69-15.6.17-3.79.17-7.41l-.26-10.25L118,90.43l-.09-21.63L118,53.29q.08-9.82-1.51-12t-8.24-3.06q-6.64-.9-7.33-1.34a1.5,1.5,0,0,1-.69-1.38,6.15,6.15,0,0,1,.26-1.55q.86-.78,4-.86.43,0,2.37-.21a33.27,33.27,0,0,1,3.66-.21h7.07l22.68-.26q19.23,0,26.95,2.84a24.86,24.86,0,0,1,12.29,9.62A26.45,26.45,0,0,1,184,60q0,15.87-16.62,24.23a43.94,43.94,0,0,0-4.48,2.59q2.93,6.2,8.18,14.9L182,120.53q6.55,10.37,9.06,13a20.63,20.63,0,0,0,6.08,4.36q3.58,1.73,12,3.29c.06.57.09,1,.09,1.38a12,12,0,0,1-.09,1.29q-11.82.17-27.68.17-1.12,0-3.1-.17Q172.3,132.1,164,118L151.26,94.7q-2.59-3.63-4.27-4.53a9.37,9.37,0,0,0-4.44-.91l-7.33.09-2.41-.09q-.26,2.76-.26,11.3v29.49a15.85,15.85,0,0,0,.69,4.57,5.47,5.47,0,0,0,2.37,2.63q1.68,1,9.7,3l3.54.86a3.64,3.64,0,0,1,.69,2.33,21.48,21.48,0,0,1-3.27.43q-7.75,0-10.93-.17-1.64-.09-2.67-.09l-11.71.17-11.45-.09q-.78,0-7.83.25l-1.72-.34-.17-.86q0-.77,1.2-1.81m32-56.4q2.33.09,3.45.09a81.66,81.66,0,0,0,14.32-1.46A23.39,23.39,0,0,0,160,79.49,19.11,19.11,0,0,0,165.88,72a23.82,23.82,0,0,0,2.37-10.33,25.25,25.25,0,0,0-3.71-12.4q-2.85-5-9.62-8.35a36.23,36.23,0,0,0-16.25-3.36q-2.33,0-6,.26-.34,4.48-.34,6.88l.43,16.1-.09,6.63q0,6.71.34,17.13"/><path class="cls-3" d="M366.86,37.18q.69,5.69.69,6.55l-.34,7.68a55.67,55.67,0,0,1-.43,6.29,3.28,3.28,0,0,1-1.29.34l-.78-.17q-2.76-12.07-9.36-17.59a24.24,24.24,0,0,0-16.09-5.52q-9.83,0-16.13,5.52t-6.3,12.85a14.65,14.65,0,0,0,4.4,10.27q4.4,4.65,22.51,13.93,13.8,7.13,19.75,11.66a30.61,30.61,0,0,1,9,10.49,29,29,0,0,1,3,13.29,33.6,33.6,0,0,1-4.79,17.35,31,31,0,0,1-12.89,12.22q-8.11,4.09-21.47,4.1A67.76,67.76,0,0,1,314,142.73q-6.29-2.24-7.68-3.62a4.11,4.11,0,0,1-1.38-2.93,21.14,21.14,0,0,1,.17-2.41A165.08,165.08,0,0,0,306.4,117q.18-4.05.6-4.74a1.36,1.36,0,0,1,1.29-.6,1.57,1.57,0,0,1,1.25.56,4.18,4.18,0,0,1,.65,2.11q.94,10.61,9.83,19t19.92,8.36a27.81,27.81,0,0,0,12.55-2.85,21.24,21.24,0,0,0,9-8.24,20.32,20.32,0,0,0,3.23-10.48,19.27,19.27,0,0,0-4.91-12.76q-4.92-5.77-19.75-13.5T320.72,82.62a42.53,42.53,0,0,1-10.87-12.25,24.31,24.31,0,0,1-2.67-11.64q0-12,9.48-20.31t25.44-8.32a51.47,51.47,0,0,1,15.18,2,36.24,36.24,0,0,1,9.57,5.09"/><path class="cls-3" d="M451.46,37.18q.69,5.69.69,6.55l-.35,7.68a56.6,56.6,0,0,1-.43,6.29,3.3,3.3,0,0,1-1.29.34l-.78-.17q-2.76-12.07-9.36-17.59a24.24,24.24,0,0,0-16.08-5.52q-9.83,0-16.13,5.52t-6.3,12.85a14.65,14.65,0,0,0,4.4,10.27q4.4,4.65,22.51,13.93Q442.14,84.46,448.09,89a30.61,30.61,0,0,1,9,10.49,29,29,0,0,1,3,13.29,33.56,33.56,0,0,1-4.79,17.35,31,31,0,0,1-12.89,12.22q-8.11,4.09-21.47,4.1a67.76,67.76,0,0,1-22.34-3.71q-6.29-2.24-7.68-3.62a4.12,4.12,0,0,1-1.38-2.93,21.34,21.34,0,0,1,.17-2.41A165.13,165.13,0,0,0,391,117c.12-2.7.32-4.28.6-4.74a1.36,1.36,0,0,1,1.3-.6,1.57,1.57,0,0,1,1.25.56,4.15,4.15,0,0,1,.65,2.11q.95,10.61,9.83,19t19.92,8.36a27.79,27.79,0,0,0,12.54-2.85,21.22,21.22,0,0,0,9-8.24,20.31,20.31,0,0,0,3.23-10.48,19.25,19.25,0,0,0-4.91-12.76q-4.92-5.77-19.75-13.5T405.32,82.62a42.51,42.51,0,0,1-10.87-12.25,24.29,24.29,0,0,1-2.67-11.64q0-12,9.49-20.31t25.44-8.32a51.49,51.49,0,0,1,15.18,2,36.23,36.23,0,0,1,9.57,5.09"/><path class="cls-3" d="M269.15,18.14a75.57,75.57,0,0,1-2.95,11.35l28.47,74.62c-9.85,26.93-31,40.81-42.13,46.52l.09.23s33.4-10.31,50.56-43.53Z"/><path class="cls-3" d="M257.23,14.91A75,75,0,0,1,254.36,26l28.54,74.8c-7.18,28.45-29.73,45.09-41.07,51.87v0s35.1-13.13,49.42-48.63Z"/><path class="cls-3" d="M245.46,11.65a74.83,74.83,0,0,1-3,11.6l28.42,74.47c-5.65,31.83-30,51-39.14,57.21l.07.22s37.23-15.92,47.72-54.31Z"/><path class="cls-3" d="M224.82,156s35.64-18.91,42.62-58.28l-34-89.2c-7,39.36-42.62,58.28-42.62,58.28Z"/><path class="cls-3" d="M1.55,25.33l0-1.39L3,23.64q1-.19,1.95-.44L5.29,23a6.47,6.47,0,0,0,.19-1.56v-.12l-.08-4.41,0-1.85L5.35,12.3l0-3.25-.23-6.4a4.71,4.71,0,0,0-1.85-.54Q2.92,2,2.2,1.82L1.74,1.7V.37L4.26.46Q6.55.69,11,.69q2.23,0,4.66-.11l.36,0,.94,0,.38,0h.8L21.56.44l.6,0,.7-.06A9.27,9.27,0,0,1,23,1.49l.29,3.59a2.63,2.63,0,0,1-.11.88,8,8,0,0,1-1,.09,1,1,0,0,1-.61-.17A4.12,4.12,0,0,1,21.12,5a5.51,5.51,0,0,0-1.37-2.29,7.91,7.91,0,0,0-3.14-.35L14,2.47a16.6,16.6,0,0,0-2.65.19,3.61,3.61,0,0,0-.61.19A2.28,2.28,0,0,0,10.47,4l.06,2.28-.06,2.6a12.62,12.62,0,0,0,.13,2.45.78.78,0,0,0,.29.14l1.35,0h2.29a21.79,21.79,0,0,0,2.35-.19A3.9,3.9,0,0,0,18.21,11a1.75,1.75,0,0,0,.66-.77,8.87,8.87,0,0,0,.3-2.29l.52,0,.36,0,.84.06L20.77,11c0,.65,0,1.21-.06,1.68l0,.42q0,.19,0,2.83c0,.11,0,.3,0,.57a3.05,3.05,0,0,1-.58.08,5.63,5.63,0,0,1-.75-.12A8,8,0,0,1,19,15.41q-.44-1.51-1-1.76-.92-.46-5.76-.46a11.66,11.66,0,0,0-1.64.13,11.25,11.25,0,0,0-.13,1.85l.09,5.74a3.57,3.57,0,0,0,.34,2,3.34,3.34,0,0,0,1.43.46l.38,0a7,7,0,0,1,1.51.25l.52.12a5.87,5.87,0,0,1,.08.77,6,6,0,0,1-.06.73l-.36,0-.59,0-2.71-.15q-.46,0-4.28,0a16.69,16.69,0,0,0-2,.12c-1,.12-1.56.17-1.64.17l-1.7,0"/><path class="cls-3" d="M24.27,15.07A10.53,10.53,0,0,1,25,11.26a8.8,8.8,0,0,1,1.5-2.52,9.91,9.91,0,0,1,2.42-2,10.77,10.77,0,0,1,3-1.29A13.65,13.65,0,0,1,35.27,5a12,12,0,0,1,5.52,1.19,9.5,9.5,0,0,1,3.69,3.23A10,10,0,0,1,46.22,15a10.38,10.38,0,0,1-2.94,7.42q-2.94,3.09-8.19,3.09a16.67,16.67,0,0,1-2.43-.17,8.58,8.58,0,0,1-1.5-.34c-.78-.25-1.21-.4-1.3-.44a12.85,12.85,0,0,1-2.68-1.95,10,10,0,0,1-1.71-2.25,13.08,13.08,0,0,1-.87-2.54,10.59,10.59,0,0,1-.32-2.75M34.69,6.53a4.47,4.47,0,0,0-2.35.62,4.94,4.94,0,0,0-1.54,1.37,8.36,8.36,0,0,0-1.24,2.78A15.73,15.73,0,0,0,29.19,15a11.47,11.47,0,0,0,.11,1.88c0,.12.05.33.09.63a8.47,8.47,0,0,0,.32,1.65,16.43,16.43,0,0,0,.93,2.4A6.19,6.19,0,0,0,32,23.08a4.47,4.47,0,0,0,1.33.73,4.9,4.9,0,0,0,1.74.33,6.3,6.3,0,0,0,3.06-.77,5.46,5.46,0,0,0,2.27-2.63,11.56,11.56,0,0,0,.86-4.82q0-1.22-.17-3.32L41,12.3a6.45,6.45,0,0,1-.15-.63A6.66,6.66,0,0,0,38.7,7.84a6.1,6.1,0,0,0-4-1.32"/><path class="cls-3" d="M47.13,24.28A3.49,3.49,0,0,1,48.3,24a6.57,6.57,0,0,0,1.41-.33,3.39,3.39,0,0,0,.09-.44c0-.14,0-.63,0-1.47l0-3.41.06-1.84,0-1.42,0-.83q0-1.67,0-3.12,0-3.18-.08-4.07l-.9-.18q-1.24-.08-1.65-.15l0-.92.06-.17a8.91,8.91,0,0,1,1.41-.12h1.42l1.19.09.81,0,1.91-.09a37.21,37.21,0,0,1,3.78-.18,7.37,7.37,0,0,1,5,1.6,4.74,4.74,0,0,1,1.85,3.67,4.43,4.43,0,0,1-1,2.81,6.1,6.1,0,0,1-3.07,1.9q.18.32.49.75.64.92,1,1.56l2.44,4a12.05,12.05,0,0,0,1.2,1.85,3.67,3.67,0,0,0,1.17.59,5,5,0,0,1,1.06.52,1.38,1.38,0,0,1,.09.46c0,.09,0,.21,0,.35h-.72l-.8-.11H66a8.35,8.35,0,0,0-1.21-.08l-1.53,0q-.17,0-1.07.11l-.66.08-.52-1q-.64-1.15-.9-1.71-.68-1.48-2.31-4.73a5.9,5.9,0,0,0-1.07-1.7,2.87,2.87,0,0,0-1.58-.32l-1,0a10.23,10.23,0,0,0,0,1.05l.08,3.4L54,23.15a3.47,3.47,0,0,0,1.12.4,12.4,12.4,0,0,1,2.05.58,7.94,7.94,0,0,1-.06,1.13l-.37,0-.63,0Q52.82,25,52.21,25l-.57,0-2.11.14a16.4,16.4,0,0,1-1.76.11h-.66c0-.26,0-.42,0-.49a3.54,3.54,0,0,1,0-.47M54,14.38l1.07,0a5.68,5.68,0,0,0,3.69-.93A3.12,3.12,0,0,0,59.86,11a6,6,0,0,0-.27-1.81,3.2,3.2,0,0,0-.67-1.26A3.54,3.54,0,0,0,57.45,7a7.28,7.28,0,0,0-2.15-.23,8.06,8.06,0,0,0-1.21.08l0,.29,0,2.07,0,1.25,0,1.67c0,.47,0,1.08,0,1.82Z"/><path class="cls-3" d="M68.11,4.55h.95l.15.25a5.67,5.67,0,0,0,.66,1q.2,0,2.1,0h2.1l.31,0,1.85,0,3.46,0h4.73l.9-.12a1.7,1.7,0,0,0,.43-.74l.17-.39H87q0,1.06,0,3.18V9.85a3.43,3.43,0,0,1-.06.69,5.49,5.49,0,0,1-1.1.24A10.38,10.38,0,0,1,85,9.05a7,7,0,0,0-.59-1.26A.85.85,0,0,0,84,7.54q-.37-.08-3.25-.08-.43,0-1.07.06a8,8,0,0,0-.08,1l0,2.05v4.5l0,4.85,0,2a5.22,5.22,0,0,0,.19,1.59,4.05,4.05,0,0,0,.91.2l1.14.24a6.21,6.21,0,0,1,.81.25c.05.37.08.59.08.67a2.43,2.43,0,0,1,0,.4h-.55a26.23,26.23,0,0,1-2.68-.12q-1.1-.11-4-.11c-.31,0-1.21.06-2.69.18l-1.13.06c0-.16,0-.27,0-.35l0-.35v-.12a2.15,2.15,0,0,1,1.27-.66,12,12,0,0,0,2.2-.69,1.9,1.9,0,0,0,.18-.77q.11-1.84.11-5.85l-.08-5.79a24.63,24.63,0,0,0-.09-2.89.33.33,0,0,0-.32-.29q-.48-.06-3.09-.06a4.4,4.4,0,0,0-1.93.28,9,9,0,0,0-2,2.08c-.26.33-.44.49-.56.49a3.48,3.48,0,0,1-.91-.6,30,30,0,0,0,1.32-4q.25-.87.35-1.18"/><path class="cls-3" d="M88.43,5.52a9,9,0,0,1,1.91-.12l.15,0a3.72,3.72,0,0,0,.54.06h.15l1.26.11q1.9.14,3,.14a17,17,0,0,0,2.41-.17l.25,0,.12,0a.93.93,0,0,1,.08.31l0,.8a4.11,4.11,0,0,1-.84.21L96.76,7l-1,.17-.09.06,0,.2a25.25,25.25,0,0,0,2.14,3.38c.29.49.57.95.86,1.38.08.11.37.58.87,1.42l.17.27.28.41.34.5a7.48,7.48,0,0,0,.52.75l1.59-2.24q.78-1,2-2.94l.06-.08L105.78,8a1.4,1.4,0,0,0,.31-.66A1.39,1.39,0,0,0,106,7a1.17,1.17,0,0,0-.38-.18A3.66,3.66,0,0,0,105,6.8l-.61-.11-.47-.09c0-.13-.05-.51-.09-1.13l3.14.17.38.06h1q.49-.08,1.27-.12l.44,0,0,1.15-.2.06a4.33,4.33,0,0,0-1.76.57,9.43,9.43,0,0,0-1.85,2.51l-2,3q-1.79,2.43-2.31,3.32a2.06,2.06,0,0,0-.23.54v.47l0,1.33v.37a7.21,7.21,0,0,0,0,.83l.06,3.92a.34.34,0,0,0,.17.17,7.89,7.89,0,0,0,1,.15,7.38,7.38,0,0,1,1.64.26.34.34,0,0,1,.12.31,2.67,2.67,0,0,1,0,.37c0,.09,0,.23,0,.43l-1.76,0-1.64-.14L100,25l-1.7.06H97.07a3.4,3.4,0,0,0-.69.06,7.67,7.67,0,0,1-1.15.12l-1.06,0c0-.21,0-.38,0-.49s0-.28,0-.51L97,23.66a2.14,2.14,0,0,0,.35-.15q0-.71,0-.87,0-2.34,0-3.19c0-.57,0-.9,0-1V18.1a3.75,3.75,0,0,0-1-2.22c-.28-.36-.46-.59-.53-.71l-3-4.56L91.34,8.35c-.05-.08-.37-.5-.95-1.26a1.65,1.65,0,0,0-.54-.33c-.1,0-.56-.15-1.39-.32a.52.52,0,0,1-.08-.24c0-.06,0-.14,0-.24s0-.24,0-.44"/><path class="cls-3" d="M116.88,25.19l0-1.3a13,13,0,0,1,1.28-.29,6,6,0,0,0,1.79-.51,3.48,3.48,0,0,0,.77-1.11l3.85-10.1L129.14,0h2.08l.17.34,3.32,7.88q1.13,2.5,2,4.86t1.54,3.85q.38.9,1.05,2.7a25.22,25.22,0,0,0,1,2.45A3,3,0,0,0,141,23a2.18,2.18,0,0,0,1.12.38,7.17,7.17,0,0,1,1.67.44,6.92,6.92,0,0,1,.1.94c0,.09,0,.23,0,.42q-1.42,0-3.11-.14t-3.06-.13q-1.51,0-2.18,0l-3.25.17-.94,0q0-.67.06-1.28l2.12-.46a3.86,3.86,0,0,0,1.11-.38.6.6,0,0,0,.19-.44,1.52,1.52,0,0,0-.09-.52l-.76-1.87-1.5-3.75-7.3,0q-.41.92-1.68,4.49a5.14,5.14,0,0,0-.36,1.38.85.85,0,0,0,.27.71,3.47,3.47,0,0,0,1.68.52l1.36.21c0,.46,0,.78,0,1a2.79,2.79,0,0,1,0,.44q-1.19,0-5.66-.33l-.79.14a16.89,16.89,0,0,1-2.69.23Zm9-10.74,5.27.06.48,0q-.57-1.7-1.49-4t-1.49-3.45Z"/><path class="cls-3" d="M161.09,5.73q.2.46.81,2.62a8.08,8.08,0,0,1,.29,2.08H160.8a10.14,10.14,0,0,0-3-3,6.8,6.8,0,0,0-3.49-.91,4.62,4.62,0,0,0-3.83,1.85,11,11,0,0,0-2,7,14.21,14.21,0,0,0,.34,3.71A9.67,9.67,0,0,0,150.21,22a4.53,4.53,0,0,0,1.68,1.36,6.21,6.21,0,0,0,2.88.69A5.79,5.79,0,0,0,158,23a11.64,11.64,0,0,0,3-3.12,9.07,9.07,0,0,1,1.49-.12,11.46,11.46,0,0,1-.2,1.2L162,22.91l-.14.46-.21.72A6.54,6.54,0,0,1,159,25.16a20.4,20.4,0,0,1-4.16.36,17.38,17.38,0,0,1-3.56-.35,8.53,8.53,0,0,1-2.87-1.12,10.46,10.46,0,0,1-2.74-2.39,9,9,0,0,1-1.48-2.8,11.14,11.14,0,0,1-.48-3.4,10.15,10.15,0,0,1,3-7.53,10.47,10.47,0,0,1,7.67-3,31.48,31.48,0,0,1,3.58.19,22.33,22.33,0,0,1,3.13.57"/><path class="cls-3" d="M164.81,24.28A3.48,3.48,0,0,1,166,24a6.57,6.57,0,0,0,1.41-.33,3.5,3.5,0,0,0,.09-.44c0-.14,0-.63,0-1.47l0-3.41.06-1.84,0-1.42,0-.83q0-1.67,0-3.12,0-3.18-.08-4.07l-.9-.18c-.83-.05-1.38-.1-1.65-.15l0-.92.06-.17a8.91,8.91,0,0,1,1.41-.12h1.42l1.19.09.81,0,1.91-.09a37.21,37.21,0,0,1,3.78-.18,7.37,7.37,0,0,1,5,1.6,4.74,4.74,0,0,1,1.85,3.67,4.43,4.43,0,0,1-1,2.81,6.11,6.11,0,0,1-3.07,1.9,8.84,8.84,0,0,0,.49.75q.64.92,1,1.56l2.44,4a12,12,0,0,0,1.2,1.85,3.67,3.67,0,0,0,1.17.59,4.94,4.94,0,0,1,1.06.52,1.38,1.38,0,0,1,.09.46c0,.09,0,.21,0,.35h-.72l-.8-.11h-.63a8.35,8.35,0,0,0-1.21-.08l-1.53,0q-.17,0-1.07.11l-.66.08-.52-1q-.64-1.15-.9-1.71-.68-1.48-2.31-4.73a5.9,5.9,0,0,0-1.07-1.7,2.88,2.88,0,0,0-1.58-.32l-1,0a10.25,10.25,0,0,0,0,1.05l.08,3.4-.09,2.88a3.47,3.47,0,0,0,1.12.4,12.41,12.41,0,0,1,2.05.58,7.92,7.92,0,0,1-.06,1.13l-.37,0-.63,0q-3.29-.29-3.9-.29l-.57,0-2.11.14a16.4,16.4,0,0,1-1.76.11h-.66c0-.26,0-.42,0-.49a3.55,3.55,0,0,1,0-.47m6.89-9.9,1.07,0a5.68,5.68,0,0,0,3.69-.93A3.12,3.12,0,0,0,177.55,11a6,6,0,0,0-.27-1.81,3.2,3.2,0,0,0-.67-1.26,3.54,3.54,0,0,0-1.48-.9A7.28,7.28,0,0,0,173,6.77a8.06,8.06,0,0,0-1.21.08l0,.29,0,2.07,0,1.25,0,1.67c0,.47,0,1.08,0,1.82Z"/><path class="cls-3" d="M186.64,5.41q.87,0,1.52.14a20.56,20.56,0,0,0,2.8.17c.37,0,1.31,0,2.83-.09q3.41-.14,6.17-.14l2.77,0a24.15,24.15,0,0,1,2.75.23,1.19,1.19,0,0,1,.27.83V9.67l0,.63c0,.06,0,.15,0,.28l-.63,0-.52,0q-.14-.31-.37-.9l-.61-1.09a7.09,7.09,0,0,0-1-1.41,4.14,4.14,0,0,0-1-.12L200.75,7q-1.43-.12-3.06-.12-1.87,0-3.34.06,0,.38,0,3l0,2.57v1.93a5.54,5.54,0,0,0,.66,0q2.74,0,3.91-.11a3.79,3.79,0,0,0,1.44-.3,1.58,1.58,0,0,0,.49-.66,20.28,20.28,0,0,0,.54-2.25h1.09c0,.91.06,1.6.06,2.07,0,1.07,0,1.76,0,2.07s0,.55,0,.72,0,.72,0,1.33,0,1.06,0,1.35V19h-1.09q-.06-.24-.23-1a6.3,6.3,0,0,0-.55-1.78,1.13,1.13,0,0,0-.61-.41,12.29,12.29,0,0,0-2.27-.11q-2.32,0-3.48.12v.52c0,1.21,0,2.23.06,3l0,3.31a.81.81,0,0,0,.41.79,12.34,12.34,0,0,0,3.84.32,17.23,17.23,0,0,0,3.61-.32,3.56,3.56,0,0,0,1.8-1,7.75,7.75,0,0,0,1.73-2.87c.32,0,.58,0,.78,0l.51,0-.08.64-.09.46-.56,2.89L206,25.29c-.66,0-1.19,0-1.58,0q-.86,0-4.58-.15-2.62-.11-6.31-.11-1.84,0-4.52.15h-.64l-1.85.06V24.24a9.5,9.5,0,0,1,1.16-.17,7.43,7.43,0,0,0,2.2-.49,3.17,3.17,0,0,0,.17-1.12q0-.26,0-.88l0-.48,0-5.77V13.6L190,11.15V9.42l-.14-1.9a3.05,3.05,0,0,0,0-.31.76.76,0,0,0-.46-.21l-.46-.09a10.15,10.15,0,0,0-1.68-.21l-.67-.06Z"/><path class="cls-3" d="M221.15,5.85a10.29,10.29,0,0,1,.27,1.58,22.79,22.79,0,0,1,.18,2.45,3.12,3.12,0,0,1-.06.6l-.15,0-1.1-.08-.18,0a7.9,7.9,0,0,0-1.35-2.74A3.66,3.66,0,0,0,216,6.45a3.43,3.43,0,0,0-2.38.79,2.51,2.51,0,0,0-.88,2,2.71,2.71,0,0,0,.87,1.88,8.77,8.77,0,0,0,3.64,1.73,17.92,17.92,0,0,1,2.26.88,6.66,6.66,0,0,1,2,1.33,5.76,5.76,0,0,1,1.26,1.83,6.09,6.09,0,0,1,.34,2.2,7.88,7.88,0,0,1-.53,2.83,4.26,4.26,0,0,1-.94,1.39,9,9,0,0,1-1.42,1.08,7.09,7.09,0,0,1-2,.9,10.59,10.59,0,0,1-2.66.27,13,13,0,0,1-2.56-.31l-1.84-.54a3,3,0,0,1-1-.38.57.57,0,0,1-.14-.29v-.17c0-.11,0-.81-.08-2.1,0-.66,0-1.13,0-1.41v-.58l1.43,0q.73,1.71.95,2.06a5.06,5.06,0,0,0,1,1.27,4.31,4.31,0,0,0,1.37.77,5,5,0,0,0,1.73.29,5.55,5.55,0,0,0,1.82-.35,3.35,3.35,0,0,0,1.6-1.16,2.67,2.67,0,0,0-.45-3.82A12.37,12.37,0,0,0,216,17.17a17,17,0,0,1-3.9-1.78,5.37,5.37,0,0,1-1.71-2.09,5.82,5.82,0,0,1-.63-2.52,5.56,5.56,0,0,1,1.74-4.14A7.09,7.09,0,0,1,216.67,5a13.45,13.45,0,0,1,2.17.26,16.72,16.72,0,0,1,2.31.64"/></g></svg>